<svg xmlns="http://www.w3.org/2000/svg" xmlns:xlink="http://www.w3.org/1999/xlink" version="1.1" x="0px" y="0px" viewBox="0 0 100 125" style="enable-background:new 0 0 100 100;" xml:space="preserve"><path d="M67.4,40.3H54v-3.9c0-0.8-0.7-1.5-1.5-1.5h-0.6v-4.4c0-0.8-0.7-1.5-1.5-1.5H39.7v-7.4c0-0.8-0.7-1.5-1.5-1.5  s-1.5,0.7-1.5,1.5v7.4h-2.1c-0.8,0-1.5,0.7-1.5,1.5v4.4h-0.6c-0.8,0-1.5,0.7-1.5,1.5v42.1c0,0.8,0.7,1.5,1.5,1.5h5.7h8.6h5.7h15  c0.8,0,1.5-0.7,1.5-1.5V41.8C68.9,41,68.3,40.3,67.4,40.3z M36.1,31.9h12.8v2.9H36.1V31.9z M45.3,77h-5.6V66.1h5.6V77z M51,41.8V77  h-2.7V64.6c0-0.8-0.7-1.5-1.5-1.5h-8.6c-0.8,0-1.5,0.7-1.5,1.5V77h-2.7V37.9h0.6h15.8H51V41.8z M65.9,46.9h-5.4  c-0.8,0-1.5,0.7-1.5,1.5s0.7,1.5,1.5,1.5h5.4v3.2h-5.4c-0.8,0-1.5,0.7-1.5,1.5s0.7,1.5,1.5,1.5h5.4v3.2h-5.4c-0.8,0-1.5,0.7-1.5,1.5  c0,0.8,0.7,1.5,1.5,1.5h5.4v3.2h-5.4c-0.8,0-1.5,0.7-1.5,1.5s0.7,1.5,1.5,1.5h5.4V77H54V43.3h12V46.9z"/><text x="0" y="115" fill="#000000" font-size="5px" font-weight="bold" font-family="'Helvetica Neue', Helvetica, Arial-Unicode, Arial, Sans-serif">Created by Mello</text><text x="0" y="120" fill="#000000" font-size="5px" font-weight="bold" font-family="'Helvetica Neue', Helvetica, Arial-Unicode, Arial, Sans-serif">from the Noun Project</text></svg>