<svg xmlns:dc="http://purl.org/dc/elements/1.1/" xmlns:cc="http://creativecommons.org/ns#" xmlns:rdf="http://www.w3.org/1999/02/22-rdf-syntax-ns#" xmlns:svg="http://www.w3.org/2000/svg" xmlns="http://www.w3.org/2000/svg" xmlns:sodipodi="http://sodipodi.sourceforge.net/DTD/sodipodi-0.dtd" xmlns:inkscape="http://www.inkscape.org/namespaces/inkscape" version="1.1" x="0px" y="0px" viewBox="0 0 128 160" enable-background="new 0 0 128 128" xml:space="preserve"><path d="M 64 2 C 40.7 2 21.699219 21.000781 21.699219 44.300781 C 21.699219 45.100781 21.700781 45.8 21.800781 46.5 C 22.500781 62.4 30.2 71.599609 37 79.599609 C 42.3 85.899609 46.900391 91.400781 46.900391 98.800781 L 46.900391 108.90039 C 46.900391 118.30039 54.6 126 64 126 C 73.4 126 81.099609 118.30039 81.099609 108.90039 L 81.099609 98.800781 C 81.099609 91.400781 85.7 85.899609 91 79.599609 C 97.8 71.499609 105.49922 62.3 106.19922 46.5 C 106.19922 45.8 106.30078 45.000781 106.30078 44.300781 C 106.30078 21.000781 87.3 2 64 2 z M 64 6 C 85.1 6 102.30078 23.200781 102.30078 44.300781 C 102.30078 45.000781 102.29922 45.700781 102.19922 46.300781 C 101.59922 60.800781 94.300391 69.4 87.900391 77 C 82.800391 83.1 77.899219 88.900781 77.199219 96.800781 L 50.800781 96.800781 C 50.100781 89.000781 45.2 83.199609 40 77.099609 C 33.6 69.499609 26.299219 60.900781 25.699219 46.300781 C 25.699219 45.600781 25.599609 45.000781 25.599609 44.300781 C 25.699609 23.200781 42.9 6 64 6 z M 64 12.900391 C 51.3 12.900391 39.9 20.500781 35 32.300781 L 38.699219 33.800781 C 42.899219 23.600781 52.9 16.900391 64 16.900391 L 64 12.900391 z M 55.400391 52.599609 L 52.599609 55.400391 L 64 66.800781 L 75.400391 55.400391 L 72.599609 52.599609 L 64 61.199219 L 55.400391 52.599609 z M 50.900391 100.80078 L 77.099609 100.80078 L 77.099609 108.90039 C 77.099609 116.10039 71.2 122 64 122 C 57.5 122 51.999609 117.20039 51.099609 110.90039 L 59.800781 110.90039 L 59.800781 106.90039 L 50.900391 106.90039 L 50.900391 100.80078 z "/><text x="0" y="143" fill="#000000" font-size="5px" font-weight="bold" font-family="'Helvetica Neue', Helvetica, Arial-Unicode, Arial, Sans-serif">Created by Kokota</text><text x="0" y="148" fill="#000000" font-size="5px" font-weight="bold" font-family="'Helvetica Neue', Helvetica, Arial-Unicode, Arial, Sans-serif">from the Noun Project</text></svg>