<svg xmlns="http://www.w3.org/2000/svg" xmlns:xlink="http://www.w3.org/1999/xlink" version="1.1" x="0px" y="0px" viewBox="0 0 5 5" enable-background="new 0 0 5 5" xml:space="preserve"><g><path fill="#000000" d="M2.5,0.843c-0.914,0-1.656,0.744-1.656,1.657c0,0.055,0.004,0.104,0.008,0.152c0,0.014,0,0.025,0.004,0.038   c0.008,0.074,0.02,0.148,0.041,0.223c0.045,0.19,0.129,0.364,0.236,0.521C1.43,3.868,1.934,4.157,2.5,4.157   c0.385,0,0.74-0.132,1.021-0.355c0.242-0.189,0.434-0.446,0.537-0.74c0.02-0.053,0.037-0.107,0.049-0.16   c0.014-0.041,0.021-0.079,0.025-0.12C4.148,2.69,4.158,2.596,4.158,2.5C4.158,1.587,3.414,0.843,2.5,0.843z M3.93,2.946   C3.764,2.822,3.619,2.678,3.477,2.529c-0.092-0.137-0.191-0.265-0.32-0.335C3.152,2.19,3.145,2.19,3.141,2.198   c-0.025,0-0.047,0.025-0.051,0.05C3.086,2.331,3.104,2.401,3.127,2.471c0,0,0.004,0.004,0.004,0.009   C2.947,2.21,2.682,1.988,2.578,1.678C2.57,1.653,2.541,1.648,2.525,1.665c-0.08,0.066-0.141,0.137-0.232,0.19   C2.219,1.9,2.1,1.885,2.037,1.951C1.922,2.066,1.871,2.235,1.764,2.364c-0.02,0.021-0.041,0.041-0.062,0.054   c0.32,0.243,0.65,0.26,1.125,0.343C3.152,2.814,3.521,3.066,3.518,3.45C3.514,3.517,3.504,3.575,3.484,3.628   C3.219,3.859,2.877,4,2.5,4C2.084,4,1.707,3.826,1.434,3.55c0.045-0.004,0.096-0.013,0.141-0.017   C1.801,3.509,2.223,3.55,2.359,3.311C2.5,3.07,2.277,2.897,2.084,2.781c-0.076-0.033-0.15-0.07-0.221-0.115   c-0.1-0.055-0.193-0.117-0.256-0.203c-0.029,0.008-0.062,0.012-0.1,0.017c-0.049,0.004-0.094-0.021-0.145,0   c-0.141,0.065-0.223,0.206-0.33,0.314c-0.018-0.07-0.025-0.146-0.029-0.22c0.129-0.104,0.252-0.215,0.377-0.321   C1.615,2.355,1.822,2.054,1.93,1.877C1.963,1.814,2,1.735,2.074,1.715c0.078-0.024,0.17-0.012,0.248-0.033   C2.375,1.665,2.43,1.628,2.459,1.579C2.5,1.505,2.508,1.421,2.604,1.505c0.145,0.123,0.227,0.59,0.479,0.521   c0.129-0.037,0.141,0.008,0.195,0.099C3.33,2.22,3.434,2.298,3.508,2.376c0.145,0.149,0.285,0.335,0.451,0.467   C3.951,2.876,3.941,2.913,3.93,2.946z M3.992,2.637c-0.133-0.115-0.289-0.211-0.41-0.335C3.48,2.194,3.41,1.996,3.264,1.938   C3.219,1.922,3.16,1.914,3.111,1.922c-0.107,0.021-0.152-0.029-0.197-0.12C2.844,1.67,2.785,1.533,2.682,1.421   C2.629,1.368,2.525,1.322,2.463,1.389C2.389,1.463,2.412,1.554,2.301,1.604c-0.082,0.033-0.168,0.009-0.25,0.028   C1.834,1.69,1.637,2.276,1.406,2.116c-0.025-0.018-0.059-0.004-0.08,0.012C1.219,2.22,1.174,2.347,1.078,2.451   C1.053,2.475,1.029,2.5,1.004,2.525C1,2.517,1,2.508,1,2.5C1,1.674,1.674,1,2.5,1S4,1.674,4,2.5C4,2.545,3.996,2.592,3.992,2.637z"></path></g></svg>