<svg xmlns="http://www.w3.org/2000/svg" data-name="Layer 1" viewBox="0 0 48 60" x="0px" y="0px"><defs><style>.cls-1{fill:none;stroke:#000;stroke-linecap:round;stroke-linejoin:round;}</style></defs><title>text-block</title><path class="cls-1" d="M29,7.33V13a2,2,0,0,0,2,2h5.73l-7.7-7.68Z"/><line class="cls-1" x1="17.12" y1="23.22" x2="31.14" y2="23.22"/><line class="cls-1" x1="17.12" y1="27.72" x2="31.14" y2="27.72"/><line class="cls-1" x1="17.12" y1="32.22" x2="31.14" y2="32.22"/><path class="cls-1" d="M36.75,32.3V15H31a2,2,0,0,1-2-2V7.33H13.75a2,2,0,0,0-2,2v29a2,2,0,0,0,2,2h18"/><rect class="cls-1" x="31.88" y="35.8" width="8.41" height="5.69"/><path class="cls-1" d="M38.57,35.77V34.71a2.49,2.49,0,1,0-5,0v1.06"/><text x="0" y="63" fill="#000000" font-size="5px" font-weight="bold" font-family="'Helvetica Neue', Helvetica, Arial-Unicode, Arial, Sans-serif">Created by Costa Galaktionov</text><text x="0" y="68" fill="#000000" font-size="5px" font-weight="bold" font-family="'Helvetica Neue', Helvetica, Arial-Unicode, Arial, Sans-serif">from the Noun Project</text></svg>